# Blender 4.0.2
# www.blender.org
mtllib 10.mtl
o Cube
v -0.275488 0.607628 -0.907566
v -2.102762 -0.053302 -1.381107
v -0.895600 0.987128 0.955614
v -2.722874 0.326198 0.482074
v -0.801350 2.456722 -1.459217
v -2.628624 1.795792 -1.932757
v -1.421461 2.836222 0.403963
v -3.248735 2.175292 -0.069577
vn 0.9136 0.3305 0.2368
vn -0.3101 0.1898 0.9316
vn -0.2629 0.9245 -0.2758
vn -0.9136 -0.3305 -0.2368
vn 0.2629 -0.9245 0.2758
vn 0.3101 -0.1898 -0.9316
vt 0.625000 0.500000
vt 0.875000 0.500000
vt 0.875000 0.750000
vt 0.625000 0.750000
vt 0.375000 0.750000
vt 0.625000 1.000000
vt 0.375000 1.000000
vt 0.375000 0.000000
vt 0.625000 0.000000
vt 0.625000 0.250000
vt 0.375000 0.250000
vt 0.125000 0.500000
vt 0.375000 0.500000
vt 0.125000 0.750000
s 0
usemtl Material
f 1/1/1 5/2/1 7/3/1 3/4/1
f 4/5/2 3/4/2 7/6/2 8/7/2
f 8/8/3 7/9/3 5/10/3 6/11/3
f 6/12/4 2/13/4 4/5/4 8/14/4
f 2/13/5 1/1/5 3/4/5 4/5/5
f 6/11/6 5/10/6 1/1/6 2/13/6
