# Blender 4.0.2
# www.blender.org
mtllib 5.mtl
o Cube
v -0.612985 2.392003 -1.484931
v -0.104940 3.965025 -2.610759
v -0.551675 3.542333 0.149994
v -0.043630 5.115355 -0.975834
v 1.320439 1.942182 -1.240942
v 1.828484 3.515205 -2.366770
v 1.381749 3.092512 0.393983
v 1.889795 4.665535 -0.731845
vn -0.2540 -0.7865 0.5629
vn 0.0307 0.5752 0.8175
vn 0.9667 -0.2249 0.1220
vn 0.2540 0.7865 -0.5629
vn -0.9667 0.2249 -0.1220
vn -0.0307 -0.5752 -0.8175
vt 0.625000 0.500000
vt 0.875000 0.500000
vt 0.875000 0.750000
vt 0.625000 0.750000
vt 0.375000 0.750000
vt 0.625000 1.000000
vt 0.375000 1.000000
vt 0.375000 0.000000
vt 0.625000 0.000000
vt 0.625000 0.250000
vt 0.375000 0.250000
vt 0.125000 0.500000
vt 0.375000 0.500000
vt 0.125000 0.750000
s 0
usemtl Material
f 1/1/1 5/2/1 7/3/1 3/4/1
f 4/5/2 3/4/2 7/6/2 8/7/2
f 8/8/3 7/9/3 5/10/3 6/11/3
f 6/12/4 2/13/4 4/5/4 8/14/4
f 2/13/5 1/1/5 3/4/5 4/5/5
f 6/11/6 5/10/6 1/1/6 2/13/6
