# Blender 4.0.2
# www.blender.org
mtllib 1.mtl
o Cube
v 1.064474 1.098995 -1.029903
v 1.275016 -0.889891 -1.028060
v 1.131267 1.107918 0.968961
v 1.341809 -0.880968 0.970805
v -0.923291 0.888634 -0.962542
v -0.712749 -1.100252 -0.960699
v -0.856498 0.897557 1.036322
v -0.645956 -1.091329 1.038166
vn -0.1053 0.9944 -0.0009
vn 0.0334 0.0045 0.9994
vn -0.9939 -0.1052 0.0337
vn 0.1053 -0.9944 0.0009
vn 0.9939 0.1052 -0.0337
vn -0.0334 -0.0045 -0.9994
vt 0.625000 0.500000
vt 0.875000 0.500000
vt 0.875000 0.750000
vt 0.625000 0.750000
vt 0.375000 0.750000
vt 0.625000 1.000000
vt 0.375000 1.000000
vt 0.375000 0.000000
vt 0.625000 0.000000
vt 0.625000 0.250000
vt 0.375000 0.250000
vt 0.125000 0.500000
vt 0.375000 0.500000
vt 0.125000 0.750000
s 0
usemtl Material
f 1/1/1 5/2/1 7/3/1 3/4/1
f 4/5/2 3/4/2 7/6/2 8/7/2
f 8/8/3 7/9/3 5/10/3 6/11/3
f 6/12/4 2/13/4 4/5/4 8/14/4
f 2/13/5 1/1/5 3/4/5 4/5/5
f 6/11/6 5/10/6 1/1/6 2/13/6
