# Blender 4.0.2
# www.blender.org
mtllib 3.mtl
o Cube
v 0.909248 2.314109 -1.421165
v 2.782699 1.745323 -1.829410
v 1.466067 2.817604 0.432600
v 3.339517 2.248817 0.024355
v 0.484825 0.463981 -0.791173
v 2.358275 -0.104806 -1.199418
v 1.041643 0.967476 1.062592
v 2.915093 0.398689 0.654347
vn -0.9367 0.2844 0.2041
vn 0.2784 0.2517 0.9269
vn -0.2122 -0.9251 0.3150
vn 0.9367 -0.2844 -0.2041
vn 0.2122 0.9251 -0.3150
vn -0.2784 -0.2517 -0.9269
vt 0.625000 0.500000
vt 0.875000 0.500000
vt 0.875000 0.750000
vt 0.625000 0.750000
vt 0.375000 0.750000
vt 0.625000 1.000000
vt 0.375000 1.000000
vt 0.375000 0.000000
vt 0.625000 0.000000
vt 0.625000 0.250000
vt 0.375000 0.250000
vt 0.125000 0.500000
vt 0.375000 0.500000
vt 0.125000 0.750000
s 0
usemtl Material
f 1/1/1 5/2/1 7/3/1 3/4/1
f 4/5/2 3/4/2 7/6/2 8/7/2
f 8/8/3 7/9/3 5/10/3 6/11/3
f 6/12/4 2/13/4 4/5/4 8/14/4
f 2/13/5 1/1/5 3/4/5 4/5/5
f 6/11/6 5/10/6 1/1/6 2/13/6
