# Blender 4.0.2
# www.blender.org
mtllib 8.mtl
o Cube
v -0.880348 1.110971 -1.083469
v -2.544949 1.771337 -1.973983
v -1.485821 1.915215 0.644707
v -3.150422 2.575582 -0.245808
v 0.048363 2.818924 -1.552925
v -1.616238 3.479291 -2.443441
v -0.557109 3.623169 0.175251
v -2.221710 4.283535 -0.715264
vn 0.8323 -0.3302 0.4453
vn -0.3027 0.4021 0.8641
vn 0.4644 0.8540 -0.2347
vn -0.8323 0.3302 -0.4453
vn -0.4644 -0.8540 0.2347
vn 0.3027 -0.4021 -0.8641
vt 0.625000 0.500000
vt 0.875000 0.500000
vt 0.875000 0.750000
vt 0.625000 0.750000
vt 0.375000 0.750000
vt 0.625000 1.000000
vt 0.375000 1.000000
vt 0.375000 0.000000
vt 0.625000 0.000000
vt 0.625000 0.250000
vt 0.375000 0.250000
vt 0.125000 0.500000
vt 0.375000 0.500000
vt 0.125000 0.750000
s 0
usemtl Material
f 1/1/1 5/2/1 7/3/1 3/4/1
f 4/5/2 3/4/2 7/6/2 8/7/2
f 8/8/3 7/9/3 5/10/3 6/11/3
f 6/12/4 2/13/4 4/5/4 8/14/4
f 2/13/5 1/1/5 3/4/5 4/5/5
f 6/11/6 5/10/6 1/1/6 2/13/6
