# Blender 4.0.2
# www.blender.org
mtllib 11.mtl
o Cube
v -0.023615 0.553363 -0.883828
v -1.686734 -0.503144 -1.227087
v -0.580267 0.811146 1.019771
v -2.243385 -0.245361 0.676512
v -0.984956 2.231856 -1.392243
v -2.648074 1.175349 -1.735501
v -1.541607 2.489639 0.511356
v -3.204725 1.433132 0.168097
vn 0.8316 0.5283 0.1716
vn -0.2783 0.1289 0.9518
vn -0.4807 0.8392 -0.2542
vn -0.8316 -0.5283 -0.1716
vn 0.4807 -0.8392 0.2542
vn 0.2783 -0.1289 -0.9518
vt 0.625000 0.500000
vt 0.875000 0.500000
vt 0.875000 0.750000
vt 0.625000 0.750000
vt 0.375000 0.750000
vt 0.625000 1.000000
vt 0.375000 1.000000
vt 0.375000 0.000000
vt 0.625000 0.000000
vt 0.625000 0.250000
vt 0.375000 0.250000
vt 0.125000 0.500000
vt 0.375000 0.500000
vt 0.125000 0.750000
s 0
usemtl Material
f 1/1/1 5/2/1 7/3/1 3/4/1
f 4/5/2 3/4/2 7/6/2 8/7/2
f 8/8/3 7/9/3 5/10/3 6/11/3
f 6/12/4 2/13/4 4/5/4 8/14/4
f 2/13/5 1/1/5 3/4/5 4/5/5
f 6/11/6 5/10/6 1/1/6 2/13/6
