# Blender 4.0.2
# www.blender.org
mtllib 12.mtl
o Cube
v 0.319184 0.570446 -0.880504
v -0.984764 -0.933919 -1.071830
v -0.110378 0.694859 1.068855
v -1.414326 -0.809506 0.877529
v -1.135188 1.882470 -1.284726
v -2.439136 0.378105 -1.476052
v -1.564749 2.006883 0.664632
v -2.868697 0.502518 0.473306
vn 0.6520 0.7522 0.0957
vn -0.2148 0.0622 0.9747
vn -0.7272 0.6560 -0.2021
vn -0.6520 -0.7522 -0.0957
vn 0.7272 -0.6560 0.2021
vn 0.2148 -0.0622 -0.9747
vt 0.625000 0.500000
vt 0.875000 0.500000
vt 0.875000 0.750000
vt 0.625000 0.750000
vt 0.375000 0.750000
vt 0.625000 1.000000
vt 0.375000 1.000000
vt 0.375000 0.000000
vt 0.625000 0.000000
vt 0.625000 0.250000
vt 0.375000 0.250000
vt 0.125000 0.500000
vt 0.375000 0.500000
vt 0.125000 0.750000
s 0
usemtl Material
f 1/1/1 5/2/1 7/3/1 3/4/1
f 4/5/2 3/4/2 7/6/2 8/7/2
f 8/8/3 7/9/3 5/10/3 6/11/3
f 6/12/4 2/13/4 4/5/4 8/14/4
f 2/13/5 1/1/5 3/4/5 4/5/5
f 6/11/6 5/10/6 1/1/6 2/13/6
